<svg width="157" height="157" viewBox="0 0 157 157" fill="none" xmlns="http://www.w3.org/2000/svg">
<path d="M125.014 40.941C124.99 40.1648 124.806 39.3705 124.464 38.6213C124.103 37.8293 123.581 37.0463 122.91 36.324C122.404 35.775 121.615 35.3025 120.441 35.1315C119.641 35.0145 118.828 34.8885 118.098 34.677C116.61 34.245 115.009 34.137 113.396 34.0695C112.25 34.0223 111.064 33.9435 109.958 34.0628C108.034 34.2675 106.307 34.7873 104.796 35.5118C102.178 36.7673 99.6152 38.0498 97.8882 39.7913C96.4831 41.2065 94.7129 42.5228 93.5629 44.001C92.091 45.8888 91.0509 47.8868 89.8852 49.8488C89.0845 51.2033 88.3466 52.5713 87.6715 53.946C86.5332 56.2433 85.3793 58.5405 84.4019 60.8625C83.3343 63.4028 82.3884 65.9633 81.5367 68.5328C81.05 69.993 80.8577 71.487 80.524 72.9653C80.2218 74.2883 79.9157 75.6113 79.5703 76.9298C79.5192 77.1165 79.2798 77.319 79.0247 77.445C77.7648 78.0728 76.4499 78.6623 75.1978 79.2923C73.1804 80.3048 70.8175 80.9303 68.282 81.369C68.0896 81.4028 67.8816 81.4073 67.6108 81.4343C67.7207 80.9145 67.8581 80.451 67.9052 79.983C68.0033 79.0785 68.0268 78.1695 68.121 77.2605C68.2349 76.131 68.4311 75.006 68.5214 73.8743C68.6705 71.973 68.7844 70.0695 68.8629 68.166C68.906 67.0748 68.8903 65.9813 68.8236 64.8878C68.7373 63.423 69.1258 61.9515 68.5449 60.4913C68.2349 59.6993 68.121 58.887 67.8895 58.086C67.7442 57.5775 67.5912 57.0645 67.3439 56.5695C67.0495 55.9778 66.6727 55.3995 66.2959 54.8258C65.1263 53.0438 64.0273 51.2595 61.0717 50.0963C59.5685 49.5045 58.0966 49.3808 56.4991 49.7363C54.6387 50.148 53.0647 50.8433 51.5497 51.5745C50.5017 52.0808 50.3447 52.515 50.9923 53.0663C51.4987 52.9313 52.0521 52.8255 52.5388 52.65C53.4219 52.3328 54.254 51.957 55.1371 51.6353C55.7337 51.4193 56.8249 51.3135 57.08 51.7095C57.2174 51.921 57.3783 52.1258 57.4647 52.344C58.3085 54.3915 58.756 56.4728 58.6304 58.5788C58.4852 60.8985 58.2183 63.2138 57.9985 65.5313C57.8454 67.1198 57.6766 68.7083 57.5118 70.2968C57.2449 72.936 57.0682 75.582 56.6797 78.2168C56.3853 80.19 55.8279 82.1498 55.3491 84.114C55.3098 84.2783 55.0586 84.4718 54.8074 84.564C53.8419 84.9263 52.7861 85.212 51.8558 85.599C47.7346 87.3068 43.6565 89.0483 40.2967 91.2623C39.076 92.0678 37.8789 92.8935 36.8309 93.7755C34.9116 95.3955 33.7577 97.2248 32.6704 99.0653C32.3054 99.684 32.0346 100.332 31.8462 100.978C31.6185 101.738 31.4223 102.515 31.4027 103.282C31.3791 104.128 31.5165 104.981 31.7049 105.822C31.8344 106.396 32.1641 106.958 32.431 107.519C32.745 108.178 33.0198 108.846 33.4476 109.483C33.7616 109.955 34.1266 110.491 34.7664 110.797C35.5435 111.175 36.5837 111.456 37.5924 111.587C39.5627 111.841 41.5449 112.055 43.6094 112.059C45.3914 112.064 47.1027 111.978 48.7943 111.681C49.1319 111.623 49.4498 111.501 49.7324 111.375C50.227 111.152 50.6352 110.84 51.1807 110.684C51.8362 110.495 52.3386 110.268 52.7429 109.915C53.8694 108.929 55.1803 108.007 56.1655 106.979C57.5039 105.584 58.7089 104.137 59.7765 102.668C60.8402 101.201 61.6723 99.6773 62.575 98.172C63.097 97.299 63.6701 96.4283 64.0194 95.5328C64.5218 94.2683 64.9182 92.9858 65.2205 91.701C65.6169 90 65.8328 88.2878 66.2213 86.5823C66.398 85.7948 66.5903 84.951 68.1878 84.5955C68.6431 84.4943 69.0984 84.393 69.5497 84.2873C70.4054 84.0915 71.2885 83.9273 72.1088 83.6933C73.8947 83.178 75.6492 82.6268 77.4154 82.0935C77.5724 82.0463 77.7412 82.008 78.0003 81.9405C77.9375 82.3343 77.8825 82.6695 77.8276 83.0025C77.6431 84.1095 77.4429 85.2143 77.282 86.3213C76.9641 88.5645 76.5441 90.8055 76.4106 93.0533C76.3125 94.8083 76.548 96.57 76.6972 98.3295C76.9327 101.018 77.49 103.691 78.5341 106.317C79.2209 108.043 80.0373 109.757 80.9479 111.452C82.1451 113.679 83.8093 115.794 86.0583 117.743C87.1377 118.681 88.3976 119.552 89.528 120.472C90.8586 121.559 92.2755 122.596 94.0731 123.446C94.6737 123.732 95.2781 124.027 96.1809 123.998C96.2123 123.865 96.1965 123.734 96.275 123.622C96.5145 123.282 96.4517 123.003 96.0945 122.679C95.6588 122.283 95.3919 121.824 95.0622 121.39C94.8346 121.086 94.6305 120.778 94.4303 120.467C94.0888 119.943 93.6767 119.43 93.4451 118.89C93.0487 117.95 92.6837 117 92.4717 116.039C92.299 115.243 92.2951 114.426 92.3383 113.623C92.3932 112.635 92.6641 111.652 92.6719 110.666C92.6719 109.895 92.4207 109.121 92.2716 108.347C92.1577 107.759 92.0007 107.17 91.9144 106.578C91.7535 105.509 91.6279 104.436 91.4826 103.367C91.3845 102.602 91.3217 101.835 91.1686 101.075C90.9017 99.747 90.3287 98.4398 90.5092 97.083C90.5485 96.7793 90.4896 96.4665 90.4268 96.1605C90.2855 95.4945 90.0539 94.833 89.9676 94.1648C89.8341 93.1365 89.7949 92.1038 89.7164 91.071C89.6771 90.5558 89.6143 90.0383 89.6183 89.523C89.6261 89.0213 89.7242 88.5218 89.7556 88.0178C89.7949 87.4508 89.787 86.8793 89.8302 86.3123C89.8812 85.7385 90.1913 85.1378 89.9676 84.6045C89.7517 84.0938 89.9754 83.6168 90.1207 83.2028C90.4621 82.2353 90.6427 81.2655 90.8232 80.2913C90.9135 79.8053 90.9449 79.3148 91.0587 78.831C91.2471 78.0188 91.4512 77.2088 91.6985 76.401C91.9026 75.7485 92.0204 75.0735 92.825 74.529C93.975 73.7505 95.1172 72.9675 96.2044 72.1598C97.5428 71.1675 98.8342 70.1483 100.125 69.1358C101.319 68.1975 102.512 67.2615 103.662 66.3098C105.805 64.5345 107.924 62.748 110.04 60.9615C110.448 60.6173 110.786 60.2415 111.194 59.8973C112.093 59.1323 113.074 58.3965 113.922 57.6135C115.559 56.0993 117.054 54.5355 118.73 53.037C120.759 51.2235 122.188 49.2593 123.354 47.2275C124.523 45.1868 125.092 43.083 125.022 40.9388M54.3875 88.3665C53.8458 90.297 53.363 92.2298 52.7311 94.1513C52.2012 95.7645 51.6714 97.389 50.8275 98.9528C49.7717 100.904 48.5785 102.843 46.7298 104.618C45.4071 105.887 43.9587 107.071 41.6391 107.809C40.7442 108.092 39.8885 108.41 38.7856 108.398C38.2086 108.394 37.875 108.232 37.561 108.014C36.6818 107.395 36.1951 106.668 35.9164 105.905C35.6534 105.17 35.4611 104.425 35.2963 103.68C34.9666 102.2 35.1589 100.737 36.1244 99.3488C36.7446 98.4555 37.5492 97.5983 38.3656 96.7545C39.3351 95.7533 40.3242 94.7498 41.4664 93.8115C42.1218 93.2715 43.0442 92.8238 43.9352 92.3963C45.5405 91.6223 47.1851 90.8685 48.865 90.1463C50.5606 89.4173 52.319 88.7378 54.0578 88.038C54.1284 88.0088 54.2305 88.0065 54.3953 87.9795C54.3953 88.1303 54.4228 88.2518 54.3875 88.3665ZM118.365 42.786C118.075 44.1338 117.635 45.486 116.999 46.7933C116.344 48.1433 115.508 49.4798 114.499 50.7555C113.474 52.0605 112.214 53.3115 110.943 54.5423C109.651 55.7865 108.254 56.997 106.829 58.194C104.71 59.9715 102.61 61.7558 100.345 63.4748C98.3514 64.9845 96.1494 66.4043 94.0417 67.8668C93.6139 68.1638 93.1979 68.4653 92.774 68.7623C92.6955 68.7375 92.617 68.715 92.5385 68.688C92.6444 68.373 92.774 68.0625 92.8564 67.7475C93.1037 66.7643 93.2803 65.7743 93.5746 64.7955C93.9122 63.6795 94.3675 62.5748 94.7286 61.461C95.1878 60.0458 95.8041 58.6485 95.9375 57.1995C95.9964 56.5785 96.381 55.9665 96.5891 55.3478C96.8246 54.648 97.0326 53.946 97.2288 53.2418C97.4604 52.4025 97.6567 51.5633 97.8686 50.7218C98.1237 49.698 98.3828 48.6743 98.6458 47.655C99.0304 46.1565 99.6663 44.6985 100.702 43.3035C101.283 42.5183 101.798 41.7038 102.551 40.9725C103.76 39.7958 105 38.61 106.5 37.5525C107.881 36.5738 109.412 35.595 111.81 35.3678C112.764 35.2778 113.722 35.3205 114.401 35.7053C115.543 36.351 116.575 37.0598 117.623 37.7573C118.357 38.2388 118.451 38.8665 118.483 39.4538C118.534 40.5653 118.589 41.688 118.353 42.786" fill="white"/>
</svg>
