<svg width="1078" height="274" viewBox="0 0 1078 274" fill="none" xmlns="http://www.w3.org/2000/svg">
<path fill-rule="evenodd" clip-rule="evenodd" d="M1057.77 25.0551L1057.74 25.1123C1047.81 46.6078 1033.75 77.0405 1025.26 95.1631L976.188 0.366691H963.67L1015.37 100.205V156.512H1026.48V99.7267C1030.64 91.9659 1034.74 84.1778 1038.83 76.3897C1050.27 54.5009 1062.83 29.8796 1073.91 7.81323C1074.21 7.21943 1074.51 6.6232 1074.81 6.02392L1074.82 6.02162L1074.82 6.01903C1075.76 4.16535 1076.72 2.28256 1077.54 0.353027H1069.21V0.366691C1068.87 1.02176 1064.25 11.033 1057.9 24.7751L1057.85 24.8842L1057.77 25.0551ZM882.621 90.7361C880.325 89.9437 878.139 88.9189 876.103 87.6619C873.629 86.1726 871.525 84.2324 869.967 81.9643V3.7005H895.303C896.765 3.7005 898.227 3.76881 899.675 3.93277C901.124 4.08307 902.573 4.32901 903.994 4.6296C905.415 4.94386 906.823 5.32644 908.216 5.79099C909.419 6.18723 910.594 6.65178 911.756 7.17099C911.882 7.22918 912.008 7.28048 912.129 7.32979C912.179 7.34995 912.227 7.36978 912.275 7.38961C916.662 9.39812 920.748 12.1718 924.205 15.574C926.897 18.211 929.193 21.2306 930.942 24.5645C931.912 26.409 932.719 28.3219 933.361 30.2894C933.579 30.9452 933.784 31.6011 933.962 32.2706C934.153 32.9401 934.317 33.5959 934.481 34.2791C934.96 36.2876 935.315 38.3235 935.561 40.3593C935.643 41.0288 935.711 41.6983 935.766 42.3815L935.777 42.5159C935.828 43.1526 935.878 43.779 935.916 44.4173C936.148 48.0928 936.094 51.7956 935.698 55.471C935.629 56.0995 935.547 56.7417 935.465 57.3702C934.837 61.7835 933.689 66.1011 931.885 70.2001C931.584 70.8696 931.27 71.5391 930.942 72.195C929.589 74.7363 927.936 77.1001 926.036 79.2589C925.558 79.7918 925.066 80.3247 924.56 80.8302C921.526 83.8908 917.987 86.4732 914.134 88.4544C913.259 88.9053 912.357 89.3152 911.441 89.7114C909.761 90.4355 908.039 91.0504 906.276 91.5423C906.16 91.5764 906.04 91.6072 905.921 91.6379C905.801 91.6686 905.682 91.6994 905.565 91.7336C905.046 91.8702 904.527 92.0068 904.008 92.1161C901.151 92.7037 898.227 93.0726 895.303 93.0453C894.77 93.0316 894.237 93.0043 893.704 92.9633C892.761 92.8949 891.832 92.813 890.889 92.69C890.192 92.5944 889.481 92.4851 888.784 92.3621L888.663 92.3397C888.182 92.2514 887.691 92.1612 887.213 92.0478C885.655 91.7062 884.111 91.2827 882.621 90.7498V90.7361ZM895.303 96.3655C901.589 96.3655 907.875 95.2451 913.792 93.0179C925.913 88.4544 935.971 79.136 942.23 67.809C947.094 58.9142 948.488 48.1338 945.919 38.3098C943.432 28.6361 937.296 20.2605 930.026 13.6474C920.652 5.05317 907.957 0.325645 895.303 0.366635H858.857V156.512H869.967V93.947L934.645 156.512H950.634L888.046 95.9829C890.506 96.3108 892.952 96.4338 895.303 96.3518V96.3655ZM0 8.70102L0.888251 0.36637H109.323L110.211 8.70102L60.6607 3.70023V156.525H49.5507V3.70023L0 8.70102ZM540.385 0.36637V81.9777H458.201V0.36637H447.077V156.525H458.201V85.3115H540.385V156.525H551.495V0.36637H540.385ZM229.661 81.9777V0.36637H240.784V156.525H229.661V85.3115H147.477V156.525H136.367V0.36637H147.477V81.9777H229.661ZM593.283 0.36637V156.525H604.393H670.028L671.818 148.19L604.393 153.191V66.2238L656.691 68.7242V60.3895L604.393 62.8899V3.70023L668.689 8.70102V0.36637H593.283ZM814.854 137.629L812.668 0.36637H820.99L818.489 156.525H815.291H815.155V156.347L710.587 19.1672L712.787 156.525H704.451L706.952 0.36637H710.286V0.448351L814.854 137.629ZM281.166 0.36637V156.525H292.276H357.91L359.701 148.19L292.276 153.191V66.2238L344.573 68.7242V60.3895L292.276 62.8899V3.70023L356.571 8.70102V0.36637H281.166ZM297.933 239.626C302.208 239.626 305.2 241.974 305.203 246.519C305.201 250.15 303.492 252.5 299.327 257.689L287.138 272.828H312.063V267.376H297.51L303.659 260.162C309.221 253.576 311.093 250.106 311.093 245.132C311.093 238.341 306.501 234.598 299.969 234.598C292.535 234.598 287.67 239.421 287.506 246.69C289.802 241.921 293.383 239.626 297.933 239.626ZM334.557 268.551V242.932H326.904L338.998 234.857H339.913V272.828H334.57V268.551H334.557ZM364.237 242.932V268.551H364.251V272.828H369.594V234.857H368.679L356.585 242.932H364.237ZM410.181 235.404H416.112L417.505 240.486L424.516 265.19L433.713 235.404H439.329L448.635 265.354L455.646 240.268C456.074 238.774 456.52 237.153 456.985 235.404H462.875L461.221 240.965L451.601 272.841H446.039L436.569 243.274L427.044 272.841H421.482L411.807 240.705L410.208 235.417L410.181 235.404ZM479.697 235.39V268.551V272.828H502.86V267.745H485.313V255.817H499.867V250.734H485.313V240.473H502.86V235.39H479.697ZM519.272 268.347V261.665C522.483 266.051 526.76 268.401 531.789 268.401C536.067 268.401 538.8 266.215 538.8 262.95C538.8 260.49 537.351 258.673 534.194 257.389L527.457 254.56C522.429 252.47 520.297 249.273 520.297 244.982C520.297 238.779 525.271 234.612 532.117 234.612C536.818 234.612 540.521 236.005 543.35 238.465V244.777C540.726 241.621 536.395 239.749 532.227 239.749C528.592 239.749 526.186 241.676 526.186 244.613C526.186 246.704 527.362 248.302 530.573 249.641L537.31 252.374C542.23 254.355 544.689 257.826 544.689 262.485C544.689 269.276 539.442 273.662 531.53 273.662C526.282 273.662 522.224 271.899 519.285 268.374L519.272 268.347ZM589.703 235.404H559.543V240.65H571.842V272.841H577.404V240.65H589.703V235.404ZM627.092 262.826C627.092 258.276 629.606 255.12 633.829 253.685C630.248 251.814 628.54 248.603 628.54 244.968C628.54 239.298 633.678 234.598 641.112 234.598C648.546 234.598 653.685 238.874 653.685 244.49C653.685 248.398 651.334 251.39 648.177 252.674C653.152 254.546 655.133 257.866 655.133 262.567C655.133 268.824 649.626 273.634 641.222 273.634C632.817 273.634 627.105 269.139 627.105 262.826H627.092ZM641.208 269.029C646.018 269.029 649.503 266.515 649.503 262.662C649.503 259.615 647.576 257.156 642.93 256.295L639.186 255.38C634.635 256.664 632.708 259.178 632.708 262.498C632.708 266.406 636.029 269.029 641.208 269.029ZM640.347 250.693L642.329 251.117C646.825 249.887 648.369 247.797 648.369 244.75C648.369 241.484 645.376 238.874 640.989 238.874C636.603 238.874 633.829 241.334 633.829 244.49C633.829 247.428 635.701 249.778 640.361 250.693H640.347ZM669.659 263.318H689.829V272.842H695.173V263.318H701.267V258.509H695.173V235.24H691.592L669.659 260.804V263.318ZM689.829 243.37V258.509H677.257L689.829 243.37ZM713.034 235.404H743.193V240.65H730.894V272.841H725.332V240.65H713.034V235.404ZM784.804 255.817V268.551V272.828H790.42V235.39H784.804V250.584H765.918V235.39H760.302V272.828H765.918V255.817H784.804Z" fill="#E8E5E1"/>
</svg>
