<svg opacity="0.02" width="725" height="1215" viewBox="0 0 725 1215" fill="none" xmlns="http://www.w3.org/2000/svg">
<path d="M724.464 93.704C724.282 83.2247 722.854 72.5023 720.212 62.3874C717.417 51.6954 713.377 41.1249 708.183 31.3745C704.265 23.963 698.159 17.5843 689.077 15.2758C682.881 13.6963 676.593 11.9953 670.943 9.14003C659.431 3.30803 647.038 1.85003 634.554 0.938781C625.685 0.300906 616.511 -0.762219 607.946 0.847656C593.062 3.61178 579.697 10.6284 568.002 20.4092C547.742 37.3584 527.907 54.6722 514.542 78.1824C503.668 97.2883 489.969 115.058 481.069 135.014C469.679 160.499 461.629 187.472 452.608 213.959C446.411 232.244 440.701 250.712 435.476 269.272C426.668 300.284 417.737 331.297 410.174 362.644C401.912 396.938 394.592 431.504 388 466.193C384.234 485.906 382.745 506.075 380.163 526.031C377.825 543.892 375.455 561.752 372.782 579.552C372.387 582.073 370.535 584.807 368.56 586.508C358.81 594.983 348.634 602.941 338.945 611.446C323.332 625.115 305.046 633.559 285.424 639.482C283.935 639.938 282.326 639.998 280.23 640.363C281.08 633.346 282.143 627.089 282.508 620.771C283.267 608.56 283.449 596.289 284.178 584.017C285.059 568.769 286.578 553.582 287.277 538.303C288.431 512.636 289.312 486.939 289.919 461.242C290.253 446.51 290.132 431.747 289.616 416.985C288.947 397.211 291.954 377.346 287.459 357.632C285.059 346.94 284.178 335.975 282.386 325.162C281.262 318.297 280.078 311.371 278.164 304.689C275.886 296.7 272.97 288.894 270.054 281.148C261.002 257.091 252.497 233.004 229.625 217.3C217.991 209.311 206.601 207.641 194.238 212.44C179.84 217.999 167.66 227.384 155.935 237.256C147.825 244.091 146.61 249.953 151.622 257.395C155.54 255.572 159.823 254.145 163.59 251.776C170.424 247.493 176.864 242.42 183.698 238.076C188.315 235.16 196.759 233.733 198.734 239.079C199.797 241.934 201.042 244.698 201.71 247.645C208.241 275.286 211.704 303.383 210.732 331.814C209.608 363.13 207.542 394.386 205.841 425.672C204.657 447.117 203.351 468.562 202.075 490.007C200.009 525.637 198.642 561.358 195.635 596.927C193.357 623.566 189.044 650.022 185.338 676.54C185.034 678.757 183.09 681.369 181.146 682.615C173.674 687.505 165.503 691.363 158.304 696.587C126.411 719.642 94.8511 743.152 68.8501 773.041C59.4035 783.915 50.1391 795.063 42.029 806.97C27.1756 828.84 18.2453 853.535 9.83147 878.381C7.0066 886.735 4.91072 895.483 3.45272 904.2C1.69097 914.467 0.172224 924.946 0.0203494 935.304C-0.161901 946.725 0.901225 958.237 2.35922 969.598C3.3616 977.343 5.9131 984.937 7.9786 992.5C10.4086 1001.4 12.5348 1010.42 15.8457 1019.02C18.2757 1025.4 21.1006 1032.63 26.0517 1036.76C32.066 1041.86 40.1154 1045.66 47.9217 1047.42C63.17 1050.85 78.5093 1053.74 94.4866 1053.8C108.277 1053.86 121.52 1052.7 134.612 1048.69C137.224 1047.9 139.685 1046.26 141.872 1044.56C145.699 1041.56 148.858 1037.33 153.08 1035.24C158.153 1032.69 162.041 1029.62 165.169 1024.85C173.887 1011.55 184.032 999.092 191.656 985.21C202.014 966.378 211.339 946.847 219.601 927.012C227.833 907.207 234.272 886.643 241.259 866.323C245.298 854.537 249.733 842.782 252.437 830.693C256.325 813.622 259.392 796.308 261.731 778.964C264.799 756.001 266.47 732.885 269.477 709.861C270.844 699.23 272.332 687.839 284.695 683.04C288.218 681.673 291.742 680.306 295.235 678.878C301.857 676.236 308.691 674.018 315.039 670.859C328.86 663.904 342.438 656.462 356.106 649.263C357.321 648.625 358.628 648.109 360.632 647.197C360.146 652.513 359.721 657.039 359.296 661.534C357.868 676.479 356.319 691.393 355.074 706.337C352.613 736.621 349.363 766.875 348.33 797.219C347.571 820.912 349.394 844.696 350.548 868.449C352.37 904.747 356.684 940.832 364.763 976.28C370.079 999.578 376.397 1022.72 383.444 1045.6C392.708 1075.67 405.587 1104.22 422.992 1130.52C431.345 1143.19 441.096 1154.95 449.844 1167.37C460.141 1182.04 471.106 1196.04 485.018 1207.52C489.665 1211.38 494.343 1215.36 501.329 1214.97C501.572 1213.17 501.451 1211.41 502.058 1209.89C503.911 1205.31 503.425 1201.54 500.661 1197.17C497.289 1191.82 495.224 1185.62 492.672 1179.76C490.911 1175.66 489.331 1171.5 487.782 1167.31C485.139 1160.23 481.95 1153.31 480.158 1146.02C477.09 1133.32 474.265 1120.5 472.625 1107.53C471.288 1096.78 471.258 1085.75 471.592 1074.91C472.017 1061.57 474.113 1048.3 474.174 1034.99C474.174 1024.58 472.23 1014.13 471.076 1003.68C470.195 995.75 468.98 987.792 468.312 979.804C467.066 965.375 466.094 950.887 464.97 936.458C464.211 926.131 463.725 915.773 462.54 905.506C460.475 887.585 456.04 869.937 457.437 851.621C457.741 847.52 457.286 843.298 456.8 839.167C455.706 830.176 453.914 821.246 453.246 812.225C452.213 798.343 451.909 784.401 451.302 770.459C450.998 763.503 450.512 756.517 450.542 749.561C450.603 742.787 451.362 736.044 451.605 729.24C451.909 721.586 451.848 713.87 452.183 706.216C452.577 698.47 454.977 690.36 453.246 683.161C451.575 676.266 453.306 669.827 454.43 664.238C457.073 651.176 458.47 638.085 459.867 624.932C460.566 618.371 460.809 611.75 461.69 605.219C463.148 594.254 464.727 583.319 466.641 572.414C468.221 563.605 469.132 554.493 475.359 547.142C484.259 536.632 493.098 526.062 501.512 515.157C511.869 501.762 521.863 488.002 531.856 474.333C541.09 461.667 550.324 449.031 559.224 436.182C575.809 412.216 592.211 388.099 608.583 363.981C611.742 359.333 614.355 354.261 617.514 349.613C624.47 339.286 632.063 329.353 638.624 318.783C651.291 298.34 662.864 277.23 675.834 257C691.538 232.518 702.594 206 711.615 178.572C720.667 151.022 725.072 122.621 724.525 93.6737M177.896 733.948C173.705 760.01 169.968 786.102 165.078 812.042C160.977 833.821 156.877 855.752 150.346 876.863C142.175 903.198 132.941 929.381 118.635 953.347C108.398 970.478 97.19 986.456 79.2384 996.419C72.3129 1000.25 65.6911 1004.53 57.1557 1004.38C52.6906 1004.32 50.1087 1002.13 47.6787 999.183C40.8747 990.83 37.1082 981.019 34.9516 970.721C32.9165 960.789 31.4281 950.735 30.1523 940.681C27.6008 920.694 29.0892 900.95 36.5615 882.209C41.3607 870.15 47.5876 858.577 53.9056 847.186C61.4082 833.669 69.0627 820.122 77.9018 807.456C82.9745 800.166 90.1126 794.121 97.0077 788.35C109.431 777.901 122.158 767.725 135.159 757.975C148.281 748.133 161.889 738.96 175.345 729.514C175.892 729.119 176.681 729.088 177.957 728.724C177.957 730.759 178.17 732.399 177.896 733.948ZM673.009 118.612C670.761 136.806 667.359 155.062 662.438 172.709C657.366 190.934 650.896 208.977 643.089 226.2C635.162 243.817 625.411 260.706 615.57 277.321C605.576 294.118 594.763 310.46 583.737 326.62C567.334 350.616 551.084 374.703 533.557 397.91C518.127 418.291 501.086 437.458 484.775 457.202C481.464 461.211 478.244 465.281 474.964 469.291C474.356 468.957 473.749 468.653 473.141 468.289C473.961 464.036 474.964 459.844 475.602 455.592C477.515 442.318 478.882 428.953 481.16 415.74C483.773 400.674 487.296 385.76 490.091 370.724C493.644 351.618 498.413 332.755 499.446 313.194C499.902 304.81 502.878 296.548 504.488 288.195C506.311 278.749 507.921 269.272 509.439 259.764C511.232 248.434 512.75 237.104 514.391 225.744C516.365 211.924 518.37 198.103 520.405 184.343C523.382 164.113 528.302 144.43 536.321 125.598C540.817 114.997 544.796 104.001 550.628 94.1293C559.983 78.2432 569.582 62.2355 581.185 47.9593C591.877 34.7462 603.723 21.533 622.283 18.4652C629.664 17.2502 637.075 17.8273 642.33 23.0214C651.169 31.739 659.158 41.3072 667.268 50.7234C672.948 57.2237 673.677 65.6983 673.92 73.6262C674.315 88.6314 674.74 103.789 672.918 118.612" fill="black"/>
</svg>
